<svg xmlns="http://www.w3.org/2000/svg" width="512" height="512" viewBox="0 0 512 512">
  <rect width="512" height="512" fill="#2dd4bf" rx="100" ry="100"/>
  <g fill="#ffffff" transform="translate(96,96) scale(0.625)">
    <!-- QR码样式图形 -->
    <rect x="0" y="0" width="80" height="80" rx="10" ry="10"/>
    <rect x="432" y="0" width="80" height="80" rx="10" ry="10"/>
    <rect x="0" y="432" width="80" height="80" rx="10" ry="10"/>
    
    <rect x="112" y="32" width="96" height="16"/>
    <rect x="304" y="32" width="96" height="16"/>
    <rect x="32" y="112" width="16" height="96"/>
    <rect x="32" y="304" width="16" height="96"/>
    
    <rect x="144" y="144" width="224" height="224" rx="15" ry="15"/>
    <rect x="176" y="176" width="160" height="160" fill="#2dd4bf"/>
    
    <rect x="208" y="208" width="32" height="32"/>
    <rect x="272" y="208" width="32" height="32"/>
    <rect x="208" y="272" width="32" height="32"/>
    <rect x="272" y="272" width="32" height="32"/>
  </g>
</svg> 